<svg width="875" height="233" xmlns="http://www.w3.org/2000/svg" xmlns:xlink="http://www.w3.org/1999/xlink" overflow="hidden"><g transform="translate(-327 -379)"><rect x="468.5" y="464.5" width="80" height="32" stroke="#000000" stroke-linejoin="round" stroke-miterlimit="10" fill="#7F7F7F"/><text fill="#FFFFFF" font-family="Times New Roman,Times New Roman_MSFontService,sans-serif" font-weight="400" font-size="21" transform="translate(482.757 489)">Task1</text><path d="M429 479.167 461.191 479.167 461.191 480.833 429 480.833ZM459.858 476 467.858 480 459.858 484Z" fill="#808080"/><rect x="816.5" y="395.5" width="80" height="32" stroke="#000000" stroke-linejoin="round" stroke-miterlimit="10" fill="#7F7F7F"/><text fill="#FFFFFF" font-family="Times New Roman,Times New Roman_MSFontService,sans-serif" font-weight="400" font-size="21" transform="translate(830.758 419)">Task4</text><rect x="816.5" y="546.5" width="80" height="32" stroke="#000000" stroke-linejoin="round" stroke-miterlimit="10" fill="#7F7F7F"/><text fill="#FFFFFF" font-family="Times New Roman,Times New Roman_MSFontService,sans-serif" font-weight="400" font-size="21" transform="translate(830.758 570)">Task5</text><path d="M709 410.167 809.094 410.167 809.094 411.833 709 411.833ZM807.761 407 815.761 411 807.761 415Z" fill="#808080"/><path d="M709 561.167 809.094 561.167 809.094 562.833 709 562.833ZM807.761 558 815.761 562 807.761 566Z" fill="#808080"/><text fill="#70AD47" font-family="Calibri,Calibri_MSFontService,sans-serif" font-weight="400" font-size="19" transform="translate(727.955 402)">sequence</text><text fill="#70AD47" font-family="Calibri,Calibri_MSFontService,sans-serif" font-weight="400" font-size="19" transform="translate(727.955 578)">sequence</text><rect x="629.5" y="395.5" width="80" height="32" stroke="#000000" stroke-linejoin="round" stroke-miterlimit="10" fill="#7F7F7F"/><text fill="#FFFFFF" font-family="Times New Roman,Times New Roman_MSFontService,sans-serif" font-weight="400" font-size="21" transform="translate(643.996 419)">Task2</text><rect x="629.5" y="546.5" width="80" height="32" stroke="#000000" stroke-linejoin="round" stroke-miterlimit="10" fill="#7F7F7F"/><text fill="#FFFFFF" font-family="Times New Roman,Times New Roman_MSFontService,sans-serif" font-weight="400" font-size="21" transform="translate(643.996 570)">Task3</text><path d="M0.541494-0.633426 76.7129 64.4829 75.6299 65.7497-0.541494 0.633426ZM77.7571 61.2095 81.2388 69.4483 72.5588 67.2904Z" fill="#808080" transform="matrix(1 0 0 -1 548 480.448)"/><path d="M548.591 479.412 625.126 556.295 623.945 557.47 547.409 480.588ZM626.43 553.116 629.239 561.607 620.76 558.76Z" fill="#808080"/><text fill="#70AD47" font-family="Calibri,Calibri_MSFontService,sans-serif" font-weight="400" font-size="19" transform="matrix(0.731793 -0.681527 0.681527 0.731793 568.45 455)">split</text><text fill="#70AD47" font-family="Calibri,Calibri_MSFontService,sans-serif" font-weight="400" font-size="19" transform="matrix(0.709428 0.704778 -0.704778 0.709428 562.927 521)">split</text><rect x="980.5" y="464.5" width="79.9999" height="32" stroke="#000000" stroke-linejoin="round" stroke-miterlimit="10" fill="#7F7F7F"/><text fill="#FFFFFF" font-family="Times New Roman,Times New Roman_MSFontService,sans-serif" font-weight="400" font-size="21" transform="translate(994.758 489)">Task6</text><path d="M896.531 410.358 975.393 475.558 974.331 476.843 895.469 411.642ZM976.383 472.268 980 480.448 971.286 478.434Z" fill="#808080"/><path d="M0.580681-0.597707 79.799 76.3641 78.6376 77.5595-0.580681 0.597707ZM81.0493 73.1637 84 81.6072 75.4747 78.9017Z" fill="#808080" transform="matrix(1 0 0 -1 896 561.607)"/><text fill="#70AD47" font-family="Calibri,Calibri_MSFontService,sans-serif" font-weight="400" font-size="19" transform="matrix(0.754789 0.655967 -0.655967 0.754789 927.245 423)">merge</text><text fill="#70AD47" font-family="Calibri,Calibri_MSFontService,sans-serif" font-weight="400" font-size="19" transform="matrix(0.694891 -0.719115 0.719115 0.694891 934.722 544)">merge</text><path d="M328.5 504.5 340.5 456.5 435.5 456.5 423.5 504.5Z" stroke="#000000" stroke-linejoin="round" stroke-miterlimit="10" fill="#7F7F7F" fill-rule="evenodd"/><text fill="#FFFFFF" font-family="Times New Roman,Times New Roman_MSFontService,sans-serif" font-weight="400" font-size="21" transform="translate(358.886 489)">Input</text><path d="M1060 479.167 1092.35 479.167 1092.35 480.833 1060 480.833ZM1091.01 476 1099.01 480 1091.01 484Z" fill="#808080"/><path d="M1093.5 504.5 1105.5 456.5 1201.5 456.5 1189.5 504.5Z" stroke="#000000" stroke-linejoin="round" stroke-miterlimit="10" fill="#7F7F7F" fill-rule="evenodd"/><text fill="#FFFFFF" font-family="Times New Roman,Times New Roman_MSFontService,sans-serif" font-weight="400" font-size="21" transform="translate(1117.2 489)">Output</text><text fill="#1E90FF" font-family="Calibri,Calibri_MSFontService,sans-serif" font-style="italic" font-weight="400" font-size="19" transform="translate(486.843 511)">tool A</text><text fill="#1E90FF" font-family="Calibri,Calibri_MSFontService,sans-serif" font-style="italic" font-weight="400" font-size="19" transform="translate(997.305 511)">tool E</text><text fill="#1E90FF" font-family="Calibri,Calibri_MSFontService,sans-serif" font-style="italic" font-weight="400" font-size="19" transform="translate(647.45 443)">tool B</text><text fill="#1E90FF" font-family="Calibri,Calibri_MSFontService,sans-serif" font-style="italic" font-weight="400" font-size="19" transform="translate(833.544 443)">tool D</text><text fill="#1E90FF" font-family="Calibri,Calibri_MSFontService,sans-serif" font-style="italic" font-weight="400" font-size="19" transform="translate(647.616 594)">tool C</text><text fill="#1E90FF" font-family="Calibri,Calibri_MSFontService,sans-serif" font-style="italic" font-weight="400" font-size="19" transform="translate(833.878 594)">tool A</text></g></svg>